<mxfile host="app.diagrams.net" modified="2024-04-17T01:03:43.403Z" agent="Mozilla/5.0 (Windows NT 10.0; Win64; x64) AppleWebKit/537.36 (KHTML, like Gecko) Chrome/123.0.0.0 Safari/537.36" etag="8TkrUiZKASLkL6mSSXV1" version="24.2.5" type="device">
  <diagram name="Página-1" id="iEOvd_mET68QCeT-6-60">
    <mxGraphModel dx="2150" dy="1926" grid="1" gridSize="10" guides="1" tooltips="1" connect="1" arrows="1" fold="1" page="1" pageScale="1" pageWidth="827" pageHeight="1169" math="0" shadow="0">
      <root>
        <mxCell id="0" />
        <mxCell id="1" parent="0" />
        <mxCell id="9JJsFDRCctAeS7KG6Eez-1" value="Funcionário" style="shape=umlActor;verticalLabelPosition=bottom;verticalAlign=top;html=1;outlineConnect=0;" parent="1" vertex="1">
          <mxGeometry x="205" y="-190" width="30" height="60" as="geometry" />
        </mxCell>
        <mxCell id="9JJsFDRCctAeS7KG6Eez-3" value="Visitante&lt;div&gt;&lt;br&gt;&lt;/div&gt;" style="shape=umlActor;verticalLabelPosition=bottom;verticalAlign=top;html=1;outlineConnect=0;" parent="1" vertex="1">
          <mxGeometry x="285" y="540" width="30" height="60" as="geometry" />
        </mxCell>
        <mxCell id="9JJsFDRCctAeS7KG6Eez-4" value="Usuário Cadastrado" style="shape=umlActor;verticalLabelPosition=bottom;verticalAlign=top;html=1;outlineConnect=0;" parent="1" vertex="1">
          <mxGeometry x="70" y="540" width="30" height="60" as="geometry" />
        </mxCell>
        <mxCell id="9JJsFDRCctAeS7KG6Eez-9" style="edgeStyle=orthogonalEdgeStyle;rounded=0;orthogonalLoop=1;jettySize=auto;html=1;exitX=0.5;exitY=0.5;exitDx=0;exitDy=0;exitPerimeter=0;entryX=0.5;entryY=0.5;entryDx=0;entryDy=0;entryPerimeter=0;" parent="1" source="9JJsFDRCctAeS7KG6Eez-4" target="9JJsFDRCctAeS7KG6Eez-3" edge="1">
          <mxGeometry relative="1" as="geometry" />
        </mxCell>
        <mxCell id="9JJsFDRCctAeS7KG6Eez-10" value="Fazer Login" style="ellipse;whiteSpace=wrap;html=1;" parent="1" vertex="1">
          <mxGeometry x="270" y="-50" width="120" height="80" as="geometry" />
        </mxCell>
        <mxCell id="9JJsFDRCctAeS7KG6Eez-11" value="Autenticar" style="ellipse;whiteSpace=wrap;html=1;" parent="1" vertex="1">
          <mxGeometry x="530" y="-120" width="120" height="80" as="geometry" />
        </mxCell>
        <mxCell id="9JJsFDRCctAeS7KG6Eez-12" value="Recuperar senha" style="ellipse;whiteSpace=wrap;html=1;" parent="1" vertex="1">
          <mxGeometry x="530" y="30" width="120" height="80" as="geometry" />
        </mxCell>
        <mxCell id="9JJsFDRCctAeS7KG6Eez-13" value="Fazer logout" style="ellipse;whiteSpace=wrap;html=1;" parent="1" vertex="1">
          <mxGeometry x="55" y="-50" width="120" height="80" as="geometry" />
        </mxCell>
        <mxCell id="9JJsFDRCctAeS7KG6Eez-14" value="Gerenciar dados" style="ellipse;whiteSpace=wrap;html=1;" parent="1" vertex="1">
          <mxGeometry x="160" y="-350" width="120" height="80" as="geometry" />
        </mxCell>
        <mxCell id="9JJsFDRCctAeS7KG6Eez-15" value="Gerenciar produtos" style="ellipse;whiteSpace=wrap;html=1;" parent="1" vertex="1">
          <mxGeometry x="-170" y="-350" width="120" height="80" as="geometry" />
        </mxCell>
        <mxCell id="9JJsFDRCctAeS7KG6Eez-16" value="Gerenciar frete" style="ellipse;whiteSpace=wrap;html=1;" parent="1" vertex="1">
          <mxGeometry x="-170" y="-250" width="120" height="80" as="geometry" />
        </mxCell>
        <mxCell id="9JJsFDRCctAeS7KG6Eez-17" value="Gerenciar formas de pagamentos" style="ellipse;whiteSpace=wrap;html=1;" parent="1" vertex="1">
          <mxGeometry x="-170" y="-150" width="120" height="80" as="geometry" />
        </mxCell>
        <mxCell id="9JJsFDRCctAeS7KG6Eez-18" value="Gerar relatórios" style="ellipse;whiteSpace=wrap;html=1;" parent="1" vertex="1">
          <mxGeometry x="390" y="-350" width="120" height="80" as="geometry" />
        </mxCell>
        <mxCell id="9JJsFDRCctAeS7KG6Eez-19" value="Gerenciar cupons" style="ellipse;whiteSpace=wrap;html=1;" parent="1" vertex="1">
          <mxGeometry x="-170" y="-50" width="120" height="80" as="geometry" />
        </mxCell>
        <mxCell id="9JJsFDRCctAeS7KG6Eez-20" value="Gerenciar pedidos recebidos" style="ellipse;whiteSpace=wrap;html=1;" parent="1" vertex="1">
          <mxGeometry x="390" y="-210" width="120" height="80" as="geometry" />
        </mxCell>
        <mxCell id="9JJsFDRCctAeS7KG6Eez-22" value="Extends" style="endArrow=open;endSize=12;dashed=1;html=1;rounded=0;exitX=0;exitY=0.5;exitDx=0;exitDy=0;entryX=1;entryY=1;entryDx=0;entryDy=0;" parent="1" source="9JJsFDRCctAeS7KG6Eez-12" target="9JJsFDRCctAeS7KG6Eez-10" edge="1">
          <mxGeometry width="160" relative="1" as="geometry">
            <mxPoint x="210" y="10" as="sourcePoint" />
            <mxPoint x="370" y="10" as="targetPoint" />
          </mxGeometry>
        </mxCell>
        <mxCell id="9JJsFDRCctAeS7KG6Eez-23" value="Extends" style="endArrow=open;endSize=12;dashed=1;html=1;rounded=0;exitX=0;exitY=0.5;exitDx=0;exitDy=0;entryX=1;entryY=0;entryDx=0;entryDy=0;" parent="1" source="9JJsFDRCctAeS7KG6Eez-11" target="9JJsFDRCctAeS7KG6Eez-10" edge="1">
          <mxGeometry width="160" relative="1" as="geometry">
            <mxPoint x="540" y="2" as="sourcePoint" />
            <mxPoint x="390" y="-50" as="targetPoint" />
          </mxGeometry>
        </mxCell>
        <mxCell id="9JJsFDRCctAeS7KG6Eez-27" value="" style="endArrow=none;html=1;rounded=0;exitX=1;exitY=1;exitDx=0;exitDy=0;exitPerimeter=0;entryX=0.5;entryY=0;entryDx=0;entryDy=0;" parent="1" source="9JJsFDRCctAeS7KG6Eez-1" target="9JJsFDRCctAeS7KG6Eez-10" edge="1">
          <mxGeometry width="50" height="50" relative="1" as="geometry">
            <mxPoint x="260" y="40" as="sourcePoint" />
            <mxPoint x="310" y="-10" as="targetPoint" />
          </mxGeometry>
        </mxCell>
        <mxCell id="9JJsFDRCctAeS7KG6Eez-28" value="" style="endArrow=none;html=1;rounded=0;entryX=0;entryY=1;entryDx=0;entryDy=0;entryPerimeter=0;exitX=0.5;exitY=0;exitDx=0;exitDy=0;" parent="1" source="9JJsFDRCctAeS7KG6Eez-13" target="9JJsFDRCctAeS7KG6Eez-1" edge="1">
          <mxGeometry width="50" height="50" relative="1" as="geometry">
            <mxPoint x="260" y="40" as="sourcePoint" />
            <mxPoint x="310" y="-10" as="targetPoint" />
          </mxGeometry>
        </mxCell>
        <mxCell id="9JJsFDRCctAeS7KG6Eez-32" value="" style="endArrow=none;html=1;rounded=0;entryX=0.5;entryY=1;entryDx=0;entryDy=0;exitX=0.5;exitY=0;exitDx=0;exitDy=0;exitPerimeter=0;" parent="1" source="9JJsFDRCctAeS7KG6Eez-1" target="9JJsFDRCctAeS7KG6Eez-14" edge="1">
          <mxGeometry width="50" height="50" relative="1" as="geometry">
            <mxPoint x="175" y="-210" as="sourcePoint" />
            <mxPoint x="225" y="-260" as="targetPoint" />
          </mxGeometry>
        </mxCell>
        <mxCell id="9JJsFDRCctAeS7KG6Eez-33" value="" style="endArrow=none;html=1;rounded=0;entryX=0;entryY=0.5;entryDx=0;entryDy=0;exitX=0.75;exitY=0.1;exitDx=0;exitDy=0;exitPerimeter=0;" parent="1" source="9JJsFDRCctAeS7KG6Eez-1" target="9JJsFDRCctAeS7KG6Eez-18" edge="1">
          <mxGeometry width="50" height="50" relative="1" as="geometry">
            <mxPoint x="260" y="-60" as="sourcePoint" />
            <mxPoint x="310" y="-110" as="targetPoint" />
          </mxGeometry>
        </mxCell>
        <mxCell id="9JJsFDRCctAeS7KG6Eez-34" value="" style="endArrow=none;html=1;rounded=0;entryX=0;entryY=0.5;entryDx=0;entryDy=0;exitX=1;exitY=0.3333333333333333;exitDx=0;exitDy=0;exitPerimeter=0;" parent="1" source="9JJsFDRCctAeS7KG6Eez-1" target="9JJsFDRCctAeS7KG6Eez-20" edge="1">
          <mxGeometry width="50" height="50" relative="1" as="geometry">
            <mxPoint x="260" y="-60" as="sourcePoint" />
            <mxPoint x="310" y="-110" as="targetPoint" />
          </mxGeometry>
        </mxCell>
        <mxCell id="9JJsFDRCctAeS7KG6Eez-35" value="Extends" style="endArrow=open;endSize=12;dashed=1;html=1;rounded=0;exitX=1;exitY=0.5;exitDx=0;exitDy=0;entryX=0.017;entryY=0.638;entryDx=0;entryDy=0;entryPerimeter=0;" parent="1" source="9JJsFDRCctAeS7KG6Eez-16" target="9JJsFDRCctAeS7KG6Eez-14" edge="1">
          <mxGeometry width="160" relative="1" as="geometry">
            <mxPoint x="108" y="-280" as="sourcePoint" />
            <mxPoint x="-50" y="-238" as="targetPoint" />
          </mxGeometry>
        </mxCell>
        <mxCell id="9JJsFDRCctAeS7KG6Eez-36" value="Extends" style="endArrow=open;endSize=12;dashed=1;html=1;rounded=0;exitX=1;exitY=0.5;exitDx=0;exitDy=0;entryX=0;entryY=0.5;entryDx=0;entryDy=0;" parent="1" source="9JJsFDRCctAeS7KG6Eez-15" target="9JJsFDRCctAeS7KG6Eez-14" edge="1">
          <mxGeometry width="160" relative="1" as="geometry">
            <mxPoint x="88" y="-300" as="sourcePoint" />
            <mxPoint x="-70" y="-258" as="targetPoint" />
          </mxGeometry>
        </mxCell>
        <mxCell id="9JJsFDRCctAeS7KG6Eez-37" value="Extends" style="endArrow=open;endSize=12;dashed=1;html=1;rounded=0;exitX=1;exitY=0.5;exitDx=0;exitDy=0;entryX=0.067;entryY=0.738;entryDx=0;entryDy=0;entryPerimeter=0;" parent="1" source="9JJsFDRCctAeS7KG6Eez-17" target="9JJsFDRCctAeS7KG6Eez-14" edge="1">
          <mxGeometry width="160" relative="1" as="geometry">
            <mxPoint x="118" y="-250" as="sourcePoint" />
            <mxPoint x="-40" y="-208" as="targetPoint" />
          </mxGeometry>
        </mxCell>
        <mxCell id="9JJsFDRCctAeS7KG6Eez-38" value="Extends" style="endArrow=open;endSize=12;dashed=1;html=1;rounded=0;exitX=1;exitY=0.5;exitDx=0;exitDy=0;entryX=0;entryY=1;entryDx=0;entryDy=0;" parent="1" source="9JJsFDRCctAeS7KG6Eez-19" target="9JJsFDRCctAeS7KG6Eez-14" edge="1">
          <mxGeometry width="160" relative="1" as="geometry">
            <mxPoint x="168" y="-212" as="sourcePoint" />
            <mxPoint x="10" y="-170" as="targetPoint" />
          </mxGeometry>
        </mxCell>
        <mxCell id="9JJsFDRCctAeS7KG6Eez-39" value="Cadastrar endereço" style="ellipse;whiteSpace=wrap;html=1;" parent="1" vertex="1">
          <mxGeometry x="-200" y="310" width="120" height="80" as="geometry" />
        </mxCell>
        <mxCell id="9JJsFDRCctAeS7KG6Eez-40" value="Filtrar produtos" style="ellipse;whiteSpace=wrap;html=1;" parent="1" vertex="1">
          <mxGeometry x="240" y="680" width="120" height="80" as="geometry" />
        </mxCell>
        <mxCell id="9JJsFDRCctAeS7KG6Eez-41" value="Gerenciar cadastro" style="ellipse;whiteSpace=wrap;html=1;" parent="1" vertex="1">
          <mxGeometry x="-200" y="530" width="120" height="80" as="geometry" />
        </mxCell>
        <mxCell id="9JJsFDRCctAeS7KG6Eez-43" value="Pesquisar produtos" style="ellipse;whiteSpace=wrap;html=1;" parent="1" vertex="1">
          <mxGeometry x="390" y="680" width="120" height="80" as="geometry" />
        </mxCell>
        <mxCell id="9JJsFDRCctAeS7KG6Eez-44" value="Visualizar produtos" style="ellipse;whiteSpace=wrap;html=1;" parent="1" vertex="1">
          <mxGeometry x="240" y="860" width="120" height="80" as="geometry" />
        </mxCell>
        <mxCell id="9JJsFDRCctAeS7KG6Eez-45" value="Adicionar produto à sacola" style="ellipse;whiteSpace=wrap;html=1;" parent="1" vertex="1">
          <mxGeometry x="25" y="680" width="120" height="80" as="geometry" />
        </mxCell>
        <mxCell id="9JJsFDRCctAeS7KG6Eez-46" value="Cancelar produto" style="ellipse;whiteSpace=wrap;html=1;" parent="1" vertex="1">
          <mxGeometry x="-200" y="680" width="120" height="80" as="geometry" />
        </mxCell>
        <mxCell id="9JJsFDRCctAeS7KG6Eez-47" value="Concluir compra" style="ellipse;whiteSpace=wrap;html=1;" parent="1" vertex="1">
          <mxGeometry x="25" y="860" width="120" height="80" as="geometry" />
        </mxCell>
        <mxCell id="9JJsFDRCctAeS7KG6Eez-48" value="Informar endereço" style="ellipse;whiteSpace=wrap;html=1;" parent="1" vertex="1">
          <mxGeometry x="-200" y="780" width="120" height="80" as="geometry" />
        </mxCell>
        <mxCell id="9JJsFDRCctAeS7KG6Eez-49" value="Esolher forma de pagamento" style="ellipse;whiteSpace=wrap;html=1;" parent="1" vertex="1">
          <mxGeometry x="-200" y="880" width="120" height="80" as="geometry" />
        </mxCell>
        <mxCell id="9JJsFDRCctAeS7KG6Eez-50" value="Enviar pedido" style="ellipse;whiteSpace=wrap;html=1;" parent="1" vertex="1">
          <mxGeometry x="25" y="1030" width="120" height="80" as="geometry" />
        </mxCell>
        <mxCell id="9JJsFDRCctAeS7KG6Eez-51" value="Visualiar status" style="ellipse;whiteSpace=wrap;html=1;" parent="1" vertex="1">
          <mxGeometry x="-290" y="980" width="120" height="80" as="geometry" />
        </mxCell>
        <mxCell id="9JJsFDRCctAeS7KG6Eez-52" value="Cancelar pedido" style="ellipse;whiteSpace=wrap;html=1;" parent="1" vertex="1">
          <mxGeometry x="-430" y="1060" width="120" height="80" as="geometry" />
        </mxCell>
        <mxCell id="9JJsFDRCctAeS7KG6Eez-53" value="Avaliar pedido" style="ellipse;whiteSpace=wrap;html=1;" parent="1" vertex="1">
          <mxGeometry x="-671" y="780" width="120" height="80" as="geometry" />
        </mxCell>
        <mxCell id="9JJsFDRCctAeS7KG6Eez-54" value="Consultar frete" style="ellipse;whiteSpace=wrap;html=1;" parent="1" vertex="1">
          <mxGeometry x="25" y="310" width="120" height="80" as="geometry" />
        </mxCell>
        <mxCell id="9JJsFDRCctAeS7KG6Eez-55" value="Visualizar histórico de compras" style="ellipse;whiteSpace=wrap;html=1;" parent="1" vertex="1">
          <mxGeometry x="-430" y="680" width="120" height="80" as="geometry" />
        </mxCell>
        <mxCell id="9JJsFDRCctAeS7KG6Eez-56" value="Devolver produto" style="ellipse;whiteSpace=wrap;html=1;" parent="1" vertex="1">
          <mxGeometry x="-670" y="680" width="120" height="80" as="geometry" />
        </mxCell>
        <mxCell id="9JJsFDRCctAeS7KG6Eez-57" value="Visualizar imagem 3D" style="ellipse;whiteSpace=wrap;html=1;" parent="1" vertex="1">
          <mxGeometry x="500" y="860" width="120" height="80" as="geometry" />
        </mxCell>
        <mxCell id="9JJsFDRCctAeS7KG6Eez-59" value="" style="endArrow=none;html=1;rounded=0;entryX=1;entryY=1;entryDx=0;entryDy=0;exitX=0.25;exitY=0.1;exitDx=0;exitDy=0;exitPerimeter=0;" parent="1" source="9JJsFDRCctAeS7KG6Eez-3" target="9JJsFDRCctAeS7KG6Eez-54" edge="1">
          <mxGeometry width="50" height="50" relative="1" as="geometry">
            <mxPoint x="280" y="530" as="sourcePoint" />
            <mxPoint x="210" y="590" as="targetPoint" />
          </mxGeometry>
        </mxCell>
        <mxCell id="9JJsFDRCctAeS7KG6Eez-60" value="" style="endArrow=none;html=1;rounded=0;entryX=1;entryY=1;entryDx=0;entryDy=0;entryPerimeter=0;exitX=0;exitY=0;exitDx=0;exitDy=0;" parent="1" source="9JJsFDRCctAeS7KG6Eez-43" target="9JJsFDRCctAeS7KG6Eez-3" edge="1">
          <mxGeometry width="50" height="50" relative="1" as="geometry">
            <mxPoint x="160" y="640" as="sourcePoint" />
            <mxPoint x="210" y="590" as="targetPoint" />
          </mxGeometry>
        </mxCell>
        <mxCell id="9JJsFDRCctAeS7KG6Eez-61" value="" style="endArrow=none;html=1;rounded=0;entryX=0.5;entryY=0.5;entryDx=0;entryDy=0;entryPerimeter=0;exitX=0.5;exitY=0;exitDx=0;exitDy=0;" parent="1" source="9JJsFDRCctAeS7KG6Eez-40" target="9JJsFDRCctAeS7KG6Eez-3" edge="1">
          <mxGeometry width="50" height="50" relative="1" as="geometry">
            <mxPoint x="240" y="690" as="sourcePoint" />
            <mxPoint x="290" y="640" as="targetPoint" />
          </mxGeometry>
        </mxCell>
        <mxCell id="9JJsFDRCctAeS7KG6Eez-62" value="Extends" style="endArrow=open;endSize=12;dashed=1;html=1;rounded=0;exitX=1;exitY=0;exitDx=0;exitDy=0;entryX=0.5;entryY=1;entryDx=0;entryDy=0;" parent="1" source="9JJsFDRCctAeS7KG6Eez-44" target="9JJsFDRCctAeS7KG6Eez-43" edge="1">
          <mxGeometry width="160" relative="1" as="geometry">
            <mxPoint x="668" y="812" as="sourcePoint" />
            <mxPoint x="510" y="760" as="targetPoint" />
          </mxGeometry>
        </mxCell>
        <mxCell id="9JJsFDRCctAeS7KG6Eez-63" value="Extends" style="endArrow=open;endSize=12;dashed=1;html=1;rounded=0;exitX=0.5;exitY=0;exitDx=0;exitDy=0;entryX=0.5;entryY=1;entryDx=0;entryDy=0;" parent="1" source="9JJsFDRCctAeS7KG6Eez-44" target="9JJsFDRCctAeS7KG6Eez-40" edge="1">
          <mxGeometry width="160" relative="1" as="geometry">
            <mxPoint x="428" y="862" as="sourcePoint" />
            <mxPoint x="270" y="810" as="targetPoint" />
          </mxGeometry>
        </mxCell>
        <mxCell id="9JJsFDRCctAeS7KG6Eez-64" value="Extends" style="endArrow=open;endSize=12;dashed=1;html=1;rounded=0;exitX=0;exitY=0.5;exitDx=0;exitDy=0;entryX=1;entryY=0.5;entryDx=0;entryDy=0;" parent="1" source="9JJsFDRCctAeS7KG6Eez-57" target="9JJsFDRCctAeS7KG6Eez-44" edge="1">
          <mxGeometry width="160" relative="1" as="geometry">
            <mxPoint x="488" y="912" as="sourcePoint" />
            <mxPoint x="330" y="860" as="targetPoint" />
          </mxGeometry>
        </mxCell>
        <mxCell id="9JJsFDRCctAeS7KG6Eez-65" value="" style="endArrow=none;html=1;rounded=0;entryX=0.5;entryY=0.5;entryDx=0;entryDy=0;entryPerimeter=0;exitX=0.5;exitY=0;exitDx=0;exitDy=0;" parent="1" source="9JJsFDRCctAeS7KG6Eez-45" target="9JJsFDRCctAeS7KG6Eez-4" edge="1">
          <mxGeometry width="50" height="50" relative="1" as="geometry">
            <mxPoint x="160" y="840" as="sourcePoint" />
            <mxPoint x="210" y="790" as="targetPoint" />
          </mxGeometry>
        </mxCell>
        <mxCell id="9JJsFDRCctAeS7KG6Eez-66" value="Extends" style="endArrow=open;endSize=12;dashed=1;html=1;rounded=0;exitX=1;exitY=0.5;exitDx=0;exitDy=0;entryX=0;entryY=0.5;entryDx=0;entryDy=0;" parent="1" source="9JJsFDRCctAeS7KG6Eez-46" target="9JJsFDRCctAeS7KG6Eez-45" edge="1">
          <mxGeometry width="160" relative="1" as="geometry">
            <mxPoint x="40" y="780" as="sourcePoint" />
            <mxPoint x="-100" y="780" as="targetPoint" />
          </mxGeometry>
        </mxCell>
        <mxCell id="9JJsFDRCctAeS7KG6Eez-67" value="Extends" style="endArrow=open;endSize=12;dashed=1;html=1;rounded=0;exitX=0.5;exitY=0;exitDx=0;exitDy=0;entryX=0.5;entryY=1;entryDx=0;entryDy=0;" parent="1" source="9JJsFDRCctAeS7KG6Eez-47" target="9JJsFDRCctAeS7KG6Eez-45" edge="1">
          <mxGeometry width="160" relative="1" as="geometry">
            <mxPoint x="-70" y="730" as="sourcePoint" />
            <mxPoint x="35" y="730" as="targetPoint" />
          </mxGeometry>
        </mxCell>
        <mxCell id="9JJsFDRCctAeS7KG6Eez-69" value="" style="endArrow=none;html=1;rounded=0;entryX=0.5;entryY=0.5;entryDx=0;entryDy=0;entryPerimeter=0;exitX=1;exitY=0.5;exitDx=0;exitDy=0;" parent="1" source="9JJsFDRCctAeS7KG6Eez-41" target="9JJsFDRCctAeS7KG6Eez-4" edge="1">
          <mxGeometry width="50" height="50" relative="1" as="geometry">
            <mxPoint x="160" y="640" as="sourcePoint" />
            <mxPoint x="210" y="590" as="targetPoint" />
          </mxGeometry>
        </mxCell>
        <mxCell id="9JJsFDRCctAeS7KG6Eez-71" value="Extends" style="endArrow=open;endSize=12;dashed=1;html=1;rounded=0;entryX=0.5;entryY=0;entryDx=0;entryDy=0;exitX=0.5;exitY=1;exitDx=0;exitDy=0;" parent="1" source="9JJsFDRCctAeS7KG6Eez-39" target="9JJsFDRCctAeS7KG6Eez-41" edge="1">
          <mxGeometry width="160" relative="1" as="geometry">
            <mxPoint x="-220" y="470" as="sourcePoint" />
            <mxPoint x="-279.99999999999454" y="620.0000000000005" as="targetPoint" />
          </mxGeometry>
        </mxCell>
        <mxCell id="9JJsFDRCctAeS7KG6Eez-73" value="Extends" style="endArrow=open;endSize=12;dashed=1;html=1;rounded=0;exitX=0.5;exitY=0;exitDx=0;exitDy=0;entryX=0.5;entryY=1;entryDx=0;entryDy=0;" parent="1" source="9JJsFDRCctAeS7KG6Eez-50" target="9JJsFDRCctAeS7KG6Eez-47" edge="1">
          <mxGeometry width="160" relative="1" as="geometry">
            <mxPoint x="170" y="1040" as="sourcePoint" />
            <mxPoint x="170" y="940" as="targetPoint" />
          </mxGeometry>
        </mxCell>
        <mxCell id="9JJsFDRCctAeS7KG6Eez-74" value="Extends" style="endArrow=open;endSize=12;dashed=1;html=1;rounded=0;exitX=1;exitY=1;exitDx=0;exitDy=0;entryX=0;entryY=0;entryDx=0;entryDy=0;" parent="1" source="9JJsFDRCctAeS7KG6Eez-46" target="9JJsFDRCctAeS7KG6Eez-47" edge="1">
          <mxGeometry width="160" relative="1" as="geometry">
            <mxPoint x="-70" y="730" as="sourcePoint" />
            <mxPoint x="35" y="730" as="targetPoint" />
          </mxGeometry>
        </mxCell>
        <mxCell id="9JJsFDRCctAeS7KG6Eez-75" value="Include" style="endArrow=open;endSize=12;dashed=1;html=1;rounded=0;exitX=0.025;exitY=0.3;exitDx=0;exitDy=0;entryX=1;entryY=0.5;entryDx=0;entryDy=0;exitPerimeter=0;" parent="1" source="9JJsFDRCctAeS7KG6Eez-47" target="9JJsFDRCctAeS7KG6Eez-48" edge="1">
          <mxGeometry width="160" relative="1" as="geometry">
            <mxPoint x="150" y="954" as="sourcePoint" />
            <mxPoint x="261" y="1020" as="targetPoint" />
          </mxGeometry>
        </mxCell>
        <mxCell id="9JJsFDRCctAeS7KG6Eez-76" value="Include" style="endArrow=open;endSize=12;dashed=1;html=1;rounded=0;entryX=1;entryY=0.5;entryDx=0;entryDy=0;exitX=0;exitY=0.5;exitDx=0;exitDy=0;" parent="1" source="9JJsFDRCctAeS7KG6Eez-47" target="9JJsFDRCctAeS7KG6Eez-49" edge="1">
          <mxGeometry width="160" relative="1" as="geometry">
            <mxPoint x="-20" y="960" as="sourcePoint" />
            <mxPoint x="25" y="1000" as="targetPoint" />
          </mxGeometry>
        </mxCell>
        <mxCell id="9JJsFDRCctAeS7KG6Eez-78" value="" style="endArrow=none;html=1;rounded=0;entryX=0;entryY=1;entryDx=0;entryDy=0;entryPerimeter=0;exitX=1;exitY=0;exitDx=0;exitDy=0;" parent="1" source="9JJsFDRCctAeS7KG6Eez-55" target="9JJsFDRCctAeS7KG6Eez-4" edge="1">
          <mxGeometry width="50" height="50" relative="1" as="geometry">
            <mxPoint x="-250" y="680" as="sourcePoint" />
            <mxPoint x="-200" y="630" as="targetPoint" />
          </mxGeometry>
        </mxCell>
        <mxCell id="9JJsFDRCctAeS7KG6Eez-81" value="Extends" style="endArrow=open;endSize=12;dashed=1;html=1;rounded=0;exitX=0.5;exitY=0;exitDx=0;exitDy=0;entryX=0.5;entryY=1;entryDx=0;entryDy=0;" parent="1" source="9JJsFDRCctAeS7KG6Eez-52" target="9JJsFDRCctAeS7KG6Eez-55" edge="1">
          <mxGeometry width="160" relative="1" as="geometry">
            <mxPoint x="-590" y="906" as="sourcePoint" />
            <mxPoint x="-449" y="1030" as="targetPoint" />
          </mxGeometry>
        </mxCell>
        <mxCell id="9JJsFDRCctAeS7KG6Eez-82" value="Extends" style="endArrow=open;endSize=12;dashed=1;html=1;rounded=0;exitX=1;exitY=0.5;exitDx=0;exitDy=0;entryX=0;entryY=1;entryDx=0;entryDy=0;" parent="1" source="9JJsFDRCctAeS7KG6Eez-52" target="9JJsFDRCctAeS7KG6Eez-50" edge="1">
          <mxGeometry width="160" relative="1" as="geometry">
            <mxPoint x="-310" y="1130" as="sourcePoint" />
            <mxPoint x="-59" y="1192" as="targetPoint" />
          </mxGeometry>
        </mxCell>
        <mxCell id="9JJsFDRCctAeS7KG6Eez-85" value="Extends" style="endArrow=open;endSize=12;dashed=1;html=1;rounded=0;exitX=1;exitY=0.5;exitDx=0;exitDy=0;entryX=0;entryY=0.5;entryDx=0;entryDy=0;" parent="1" source="9JJsFDRCctAeS7KG6Eez-56" target="9JJsFDRCctAeS7KG6Eez-55" edge="1">
          <mxGeometry width="160" relative="1" as="geometry">
            <mxPoint x="-480" y="1060" as="sourcePoint" />
            <mxPoint x="-480" y="760" as="targetPoint" />
          </mxGeometry>
        </mxCell>
        <mxCell id="9JJsFDRCctAeS7KG6Eez-86" value="Extends" style="endArrow=open;endSize=12;dashed=1;html=1;rounded=0;exitX=1;exitY=0.5;exitDx=0;exitDy=0;entryX=0;entryY=0.5;entryDx=0;entryDy=0;" parent="1" source="9JJsFDRCctAeS7KG6Eez-51" target="9JJsFDRCctAeS7KG6Eez-50" edge="1">
          <mxGeometry width="160" relative="1" as="geometry">
            <mxPoint x="-300" y="1110" as="sourcePoint" />
            <mxPoint x="53" y="1108" as="targetPoint" />
          </mxGeometry>
        </mxCell>
        <mxCell id="9JJsFDRCctAeS7KG6Eez-87" value="Extends" style="endArrow=open;endSize=12;dashed=1;html=1;rounded=0;exitX=0;exitY=0;exitDx=0;exitDy=0;entryX=1;entryY=1;entryDx=0;entryDy=0;" parent="1" source="9JJsFDRCctAeS7KG6Eez-51" target="9JJsFDRCctAeS7KG6Eez-55" edge="1">
          <mxGeometry width="160" relative="1" as="geometry">
            <mxPoint x="-300" y="1110" as="sourcePoint" />
            <mxPoint x="53" y="1108" as="targetPoint" />
          </mxGeometry>
        </mxCell>
        <mxCell id="9JJsFDRCctAeS7KG6Eez-88" value="Extends" style="endArrow=open;endSize=12;dashed=1;html=1;rounded=0;exitX=1;exitY=0.5;exitDx=0;exitDy=0;entryX=0;entryY=1;entryDx=0;entryDy=0;" parent="1" source="9JJsFDRCctAeS7KG6Eez-53" target="9JJsFDRCctAeS7KG6Eez-55" edge="1">
          <mxGeometry width="160" relative="1" as="geometry">
            <mxPoint x="-540" y="730" as="sourcePoint" />
            <mxPoint x="-420" y="730" as="targetPoint" />
          </mxGeometry>
        </mxCell>
        <mxCell id="9JJsFDRCctAeS7KG6Eez-89" value="Administrador" style="shape=umlActor;verticalLabelPosition=bottom;verticalAlign=top;html=1;outlineConnect=0;" parent="1" vertex="1">
          <mxGeometry x="-675" y="150" width="30" height="60" as="geometry" />
        </mxCell>
        <mxCell id="9JJsFDRCctAeS7KG6Eez-90" value="Gerenciar funcionário" style="ellipse;whiteSpace=wrap;html=1;" parent="1" vertex="1">
          <mxGeometry x="-500" y="130" width="120" height="80" as="geometry" />
        </mxCell>
        <mxCell id="9JJsFDRCctAeS7KG6Eez-91" value="" style="endArrow=none;html=1;rounded=0;exitX=1;exitY=0.3333333333333333;exitDx=0;exitDy=0;exitPerimeter=0;entryX=0;entryY=0.5;entryDx=0;entryDy=0;" parent="1" source="9JJsFDRCctAeS7KG6Eez-89" target="9JJsFDRCctAeS7KG6Eez-90" edge="1">
          <mxGeometry width="50" height="50" relative="1" as="geometry">
            <mxPoint x="-610" y="195" as="sourcePoint" />
            <mxPoint x="-560" y="145" as="targetPoint" />
          </mxGeometry>
        </mxCell>
        <mxCell id="5eInbij7_Zaez9bsJWYX-1" value="Fazer logout" style="ellipse;whiteSpace=wrap;html=1;" parent="1" vertex="1">
          <mxGeometry x="25" y="430" width="120" height="80" as="geometry" />
        </mxCell>
        <mxCell id="5eInbij7_Zaez9bsJWYX-2" value="Fazer Login" style="ellipse;whiteSpace=wrap;html=1;" parent="1" vertex="1">
          <mxGeometry x="240" y="380" width="120" height="80" as="geometry" />
        </mxCell>
        <mxCell id="5eInbij7_Zaez9bsJWYX-3" value="Recuperar senha" style="ellipse;whiteSpace=wrap;html=1;" parent="1" vertex="1">
          <mxGeometry x="440" y="470" width="120" height="80" as="geometry" />
        </mxCell>
        <mxCell id="5eInbij7_Zaez9bsJWYX-4" value="Autenticar" style="ellipse;whiteSpace=wrap;html=1;" parent="1" vertex="1">
          <mxGeometry x="470" y="350" width="120" height="80" as="geometry" />
        </mxCell>
        <mxCell id="5eInbij7_Zaez9bsJWYX-5" value="Extends" style="endArrow=open;endSize=12;dashed=1;html=1;rounded=0;exitX=0;exitY=0.5;exitDx=0;exitDy=0;entryX=1;entryY=1;entryDx=0;entryDy=0;" parent="1" source="5eInbij7_Zaez9bsJWYX-3" target="5eInbij7_Zaez9bsJWYX-2" edge="1">
          <mxGeometry width="160" relative="1" as="geometry">
            <mxPoint x="440" y="512" as="sourcePoint" />
            <mxPoint x="282" y="460" as="targetPoint" />
          </mxGeometry>
        </mxCell>
        <mxCell id="5eInbij7_Zaez9bsJWYX-6" value="Extends" style="endArrow=open;endSize=12;dashed=1;html=1;rounded=0;exitX=0;exitY=0.5;exitDx=0;exitDy=0;entryX=1;entryY=0;entryDx=0;entryDy=0;" parent="1" source="5eInbij7_Zaez9bsJWYX-4" target="5eInbij7_Zaez9bsJWYX-2" edge="1">
          <mxGeometry width="160" relative="1" as="geometry">
            <mxPoint x="440" y="360" as="sourcePoint" />
            <mxPoint x="282" y="402" as="targetPoint" />
          </mxGeometry>
        </mxCell>
        <mxCell id="5eInbij7_Zaez9bsJWYX-8" value="" style="endArrow=none;html=1;rounded=0;entryX=0.5;entryY=1;entryDx=0;entryDy=0;exitX=0.5;exitY=0;exitDx=0;exitDy=0;exitPerimeter=0;" parent="1" source="9JJsFDRCctAeS7KG6Eez-4" target="5eInbij7_Zaez9bsJWYX-1" edge="1">
          <mxGeometry width="50" height="50" relative="1" as="geometry">
            <mxPoint x="-10" y="450" as="sourcePoint" />
            <mxPoint x="40" y="400" as="targetPoint" />
          </mxGeometry>
        </mxCell>
        <mxCell id="5eInbij7_Zaez9bsJWYX-9" value="" style="endArrow=none;html=1;rounded=0;entryX=0.5;entryY=1;entryDx=0;entryDy=0;exitX=0.5;exitY=0;exitDx=0;exitDy=0;exitPerimeter=0;" parent="1" source="9JJsFDRCctAeS7KG6Eez-3" target="5eInbij7_Zaez9bsJWYX-2" edge="1">
          <mxGeometry width="50" height="50" relative="1" as="geometry">
            <mxPoint x="95" y="550" as="sourcePoint" />
            <mxPoint x="95" y="470" as="targetPoint" />
          </mxGeometry>
        </mxCell>
        <mxCell id="5eInbij7_Zaez9bsJWYX-10" value="Inserir cupom" style="ellipse;whiteSpace=wrap;html=1;" parent="1" vertex="1">
          <mxGeometry x="205" y="980" width="120" height="80" as="geometry" />
        </mxCell>
        <mxCell id="5eInbij7_Zaez9bsJWYX-11" value="Extends" style="endArrow=open;endSize=12;dashed=1;html=1;rounded=0;exitX=0;exitY=0;exitDx=0;exitDy=0;entryX=1;entryY=1;entryDx=0;entryDy=0;" parent="1" source="5eInbij7_Zaez9bsJWYX-10" target="9JJsFDRCctAeS7KG6Eez-47" edge="1">
          <mxGeometry width="160" relative="1" as="geometry">
            <mxPoint x="120" y="960" as="sourcePoint" />
            <mxPoint x="225" y="960" as="targetPoint" />
          </mxGeometry>
        </mxCell>
        <mxCell id="be-AfS7Eq3Sl1wjJx827-2" value="Extends" style="endArrow=open;endSize=12;dashed=1;html=1;rounded=0;entryX=1;entryY=0.5;entryDx=0;entryDy=0;exitX=0;exitY=0.5;exitDx=0;exitDy=0;" parent="1" source="9JJsFDRCctAeS7KG6Eez-54" target="9JJsFDRCctAeS7KG6Eez-39" edge="1">
          <mxGeometry width="160" relative="1" as="geometry">
            <mxPoint x="-130" y="540" as="sourcePoint" />
            <mxPoint x="-148" y="418" as="targetPoint" />
          </mxGeometry>
        </mxCell>
        <mxCell id="be-AfS7Eq3Sl1wjJx827-4" value="Extends" style="endArrow=open;endSize=12;dashed=1;html=1;rounded=0;exitX=1;exitY=1;exitDx=0;exitDy=0;entryX=0;entryY=0;entryDx=0;entryDy=0;" parent="1" source="9JJsFDRCctAeS7KG6Eez-45" target="9JJsFDRCctAeS7KG6Eez-44" edge="1">
          <mxGeometry width="160" relative="1" as="geometry">
            <mxPoint x="200" y="830" as="sourcePoint" />
            <mxPoint x="200" y="730" as="targetPoint" />
          </mxGeometry>
        </mxCell>
        <mxCell id="be-AfS7Eq3Sl1wjJx827-5" value="Extends" style="endArrow=open;endSize=12;dashed=1;html=1;rounded=0;exitX=0;exitY=1;exitDx=0;exitDy=0;entryX=1;entryY=0;entryDx=0;entryDy=0;" parent="1" source="5eInbij7_Zaez9bsJWYX-2" target="9JJsFDRCctAeS7KG6Eez-45" edge="1">
          <mxGeometry x="-0.2515" y="1" width="160" relative="1" as="geometry">
            <mxPoint x="145" y="630" as="sourcePoint" />
            <mxPoint x="276" y="754" as="targetPoint" />
            <mxPoint y="1" as="offset" />
          </mxGeometry>
        </mxCell>
        <mxCell id="be-AfS7Eq3Sl1wjJx827-6" value="Extends" style="endArrow=open;endSize=12;dashed=1;html=1;rounded=0;exitX=0;exitY=0.5;exitDx=0;exitDy=0;entryX=0;entryY=0;entryDx=0;entryDy=0;" parent="1" source="9JJsFDRCctAeS7KG6Eez-49" target="9JJsFDRCctAeS7KG6Eez-54" edge="1">
          <mxGeometry x="-0.2003" width="160" relative="1" as="geometry">
            <mxPoint x="-292.22" y="460" as="sourcePoint" />
            <mxPoint x="100" y="250" as="targetPoint" />
            <Array as="points">
              <mxPoint x="-250" y="920" />
              <mxPoint x="-250" y="280" />
              <mxPoint x="20" y="280" />
            </Array>
            <mxPoint as="offset" />
          </mxGeometry>
        </mxCell>
      </root>
    </mxGraphModel>
  </diagram>
</mxfile>
